<svg width="1200" height="800" viewBox="0 0 1200 800" fill="none" xmlns="http://www.w3.org/2000/svg">
  <rect width="1200" height="800" fill="#EFF6FF"/>
  <rect x="92" y="110" width="360" height="570" rx="30" fill="#DBEAFE"/>
  <rect x="498" y="110" width="258" height="570" rx="30" fill="#93C5FD"/>
  <rect x="802" y="110" width="306" height="570" rx="30" fill="#2563EB"/>
  <rect x="156" y="188" width="232" height="34" rx="17" fill="#1D4ED8"/>
  <rect x="156" y="258" width="194" height="20" rx="10" fill="#93C5FD"/>
  <rect x="156" y="306" width="214" height="20" rx="10" fill="#93C5FD"/>
  <rect x="552" y="196" width="150" height="150" rx="22" fill="white"/>
  <rect x="552" y="380" width="150" height="150" rx="22" fill="white"/>
  <rect x="858" y="196" width="196" height="22" rx="11" fill="#BFDBFE"/>
  <rect x="858" y="254" width="164" height="22" rx="11" fill="#BFDBFE"/>
  <rect x="858" y="312" width="144" height="22" rx="11" fill="#BFDBFE"/>
  <rect x="858" y="468" width="196" height="22" rx="11" fill="#BFDBFE"/>
  <rect x="858" y="526" width="164" height="22" rx="11" fill="#BFDBFE"/>
</svg>
